<svg width="1595" height="791" xmlns="http://www.w3.org/2000/svg" xmlns:xlink="http://www.w3.org/1999/xlink" overflow="hidden"><defs><clipPath id="clip0"><rect x="-229" y="-8" width="1595" height="791"/></clipPath></defs><g clip-path="url(#clip0)" transform="translate(229 8)"><path d="M1573.77 315.593 1573.77 315.593 1554.28 315.593 1470.72 315.593C1469.47 308.58 1466.23 303.194 1461.2 299.616 1461.2 299.616 1461.2 299.616 1461.2 299.619 1453.54 207.752 1429.52 183.463 1427.18 181.304 1424.45 177.635 1421.07 174.228 1417.06 171.355 1400.81 159.68 1385.18 159.807 1367.46 171.513L1367.45 171.489C1367.45 171.489 1346.7 179.54 1352.03 201.195L1350.21 241.069C1349.79 250.753 1353.9 260.193 1361.3 266.486L1354.41 296.275C1354.58 296.198 1354.74 296.104 1354.91 296.027 1353.38 296.704 1351.95 297.487 1350.7 298.441 1346.83 301.213 1343.71 305.206 1341.83 310.328L1313.62 386.767 1294.28 388.782C1293.09 388.015 1291.82 387.376 1290.44 386.991L1273.6 382.251 1268.23 340.204C1268.05 338.761 1266.73 337.589 1265.29 337.589L1261.7 337.589C1261.7 337.589 1261.7 337.589 1261.7 337.589L1193.9 337.589C1192.46 337.589 1191.44 338.761 1191.62 340.204L1198.6 394.861C1196.27 395.212 1194.45 397.137 1194.45 399.564L1194.45 400.173C1194.45 403.125 1197.05 405.301 1199.89 404.95L1200.01 405.957 1199.31 405.901C1196.27 405.663 1193.67 408.063 1193.67 411.109 1193.67 413.874 1195.8 416.063 1198.42 416.301 1197.14 417.185 1196.3 418.53 1196.3 420.08 1196.3 421.992 1197.56 423.578 1199.33 424.375 1198.51 425.209 1198.01 426.353 1198.05 427.615L1198.06 427.759C1198.13 430.196 1200.13 432.044 1202.44 432.064L1171.79 432.064 1172.59 424.412C1180.91 416.773 1185.3 405.201 1183.18 393.257L1178.81 365.51 1184.07 315.597 1182.72 315.597 1182.72 315.593 1170.94 315.593 1165.31 279.856C1165.06 278.43 1164.68 277.064 1164.26 275.715L1306.57 275.715C1317.03 275.715 1325.5 267.24 1325.5 256.785L1325.5 256.785 1325.5 233.765 1325.5 233.762 1325.5 210.741 1325.5 210.741C1325.5 210.741 1325.5 210.741 1325.5 210.741 1325.5 209.58 1325.36 208.458 1325.16 207.357 1325.1 206.999 1325.01 206.658 1324.92 206.306 1324.84 205.968 1324.79 205.62 1324.7 205.288 1324.68 205.325 1324.66 205.359 1324.64 205.396 1322.32 197.563 1315.16 191.815 1306.57 191.815L1138.52 191.815C1128.06 191.815 1119.59 200.287 1119.59 210.745L1119.59 233.765 1119.59 245.411C1112.07 243.148 1103.56 240.925 1093.98 238.934 1093.98 238.913 1093.98 238.9 1093.97 238.88 1093.86 238.441 1093.45 238.224 1093.02 238.227 1089.89 232.282 1083.37 227.053 1074.57 223.097 1076.33 220.118 1077.35 216.656 1077.35 212.947L1077.35 169.31C1079.8 165.119 1080.98 159.907 1079.63 153.423 1079.63 153.423 1096.37 130.647 1077.35 115.189L1077.35 58.4764C1077.35 47.4064 1068.38 38.432 1057.31 38.432L855.877 38.432C844.807 38.432 835.832 47.4064 835.832 58.4764L835.832 212.947C835.832 224.017 844.807 232.992 855.877 232.992L979.608 232.992C977.583 235.161 976.003 237.457 975.012 239.867 952.852 245.254 937.216 252.156 926.655 256.544 926.237 256.719 925.852 256.936 925.483 257.177 917.041 261.378 910.32 268.967 907.581 278.761L907.334 279.561 776.887 279.561 776.887 279.561C776.787 279.561 776.693 279.588 776.593 279.592 772.686 279.652 769.078 280.89 766.088 282.972 765.764 282.895 765.563 282.849 765.563 282.849 755.41 278.182 742.395 274.383 728.617 291.472 728.614 291.475 728.614 291.478 728.61 291.482L712.389 312.507 698.413 421.982C700.756 420.003 702.842 417.637 704.522 414.868L755.855 323.948C756.344 324.119 757.044 324.354 757.847 324.625L757.656 370.458C757.656 380.912 766.132 389.388 776.586 389.388L873.163 389.388 872.728 390.79C867.887 408.09 877.277 425.978 893.853 432.061L695.719 432.061C696.639 431.415 697.335 430.447 697.479 429.306L712.908 308.46C713.159 306.505 711.776 304.922 709.821 304.922L704.803 304.922 670.291 304.922 650.592 265.894C646.712 257.448 639.652 251.537 631.495 248.839 631.428 248.812 631.367 248.772 631.3 248.745 610.69 240.473 590.391 234.97 570.179 232.095L572.359 210.142C581.042 204.569 587.164 195.095 588.256 184.143L588.738 179.292C593.374 176.839 596.313 172.169 596.323 166.796 596.336 161.082 594.11 156.185 590.897 153.862 591.292 154.146 591.673 154.474 592.035 154.836 594.756 149.018 596.32 142.554 596.32 135.705 596.32 126.071 593.287 117.157 588.152 109.819L726.649 109.819C737.103 109.819 745.579 101.344 745.579 90.8897L745.783 41.9434 745.88 41.9434 745.88 18.9298C745.88 8.47572 737.404 0 726.95 0L413.017 0C402.563 0 394.087 8.47572 394.087 18.9298L394.087 19.3013 393.789 90.8964C393.789 101.35 402.265 109.826 412.719 109.826L500.074 109.826C502.919 112.675 506.367 114.918 510.234 116.31 507.432 122.198 505.815 128.759 505.815 135.715 505.815 142.199 507.204 148.352 509.658 153.929 506.484 156.272 504.292 161.136 504.305 166.806 504.315 170.401 505.661 173.658 507.92 176.172 506.608 175.885 505.256 175.71 503.857 175.71L387.687 175.71C377.23 175.71 368.757 184.186 368.757 194.64L368.757 217.661 368.757 240.681C368.757 251.135 377.23 259.611 387.687 259.611L424.214 259.611C421.744 262.5 419.682 265.82 418.276 269.593 413.814 281.553 409.85 293.668 405.854 305.769 404.813 309.039 403.818 312.326 402.787 315.6L402.587 315.6 402.637 316.079C401.291 320.353 399.952 324.631 398.633 328.916 392.571 328.481 386.422 328.036 373.454 327.52 375.864 326.452 377.789 324.477 378.753 321.97 379.412 320.256 378.077 318.439 376.242 318.552L349.074 320.24C346.239 320.417 343.518 321.411 341.238 323.098L334.486 328.099C333.86 325.241 333.017 322.231 331.855 319.055 326.744 304.989 333.388 295.776 335.731 278.082 337.017 268.438 332.98 256.046 327.795 243.992 319.245 224.118 334.838 206.708 326.476 187.262 321.846 176.494 313.645 168.738 303.837 163.663L303.837 132.164 303.837 109.143 303.837 109.143C303.837 98.6892 295.361 90.2135 284.907 90.2135L78.6046 90.2135C68.1505 90.2135 59.6748 98.6859 59.6748 109.143L59.6748 109.143 59.6748 132.164 59.6748 250.961C59.6748 261.415 68.1505 269.891 78.6046 269.891L157.092 269.891C146.722 282.875 145.794 300.992 143.378 316.464 140.981 315.921 138.507 315.603 135.963 315.603L36.1825 315.603 9.61385 315.603 9.61385 315.603 0 315.603 47.6475 604.862 47.6475 789.544 55.3031 789.544 55.3031 789.544 72.0034 789.544 72.0034 624.164 136.509 624.164 136.509 789.544 144.164 789.544 151.314 789.544 160.861 789.544 160.861 624.164 238.12 624.164 211.501 789.544 226.307 789.544 253.498 624.164 275.039 624.164 275.039 789.544 282.695 789.544 289.841 789.544 299.392 789.544 299.392 624.164 315.372 624.164C315.031 655.797 316.069 688.578 316.885 723.248L318.937 723.251C318.814 732.738 318.331 741.685 317.003 747.882 317.003 747.882 317.003 747.885 317.003 747.885L317.003 747.882C317.003 747.882 343.812 758.101 361.935 739.65 343.816 758.105 317.003 747.882 317.003 747.882 317.003 747.882 312.115 760.589 312.5 778.993 311.981 778.996 311.56 779.418 311.56 779.937 311.56 780.459 311.985 780.884 312.507 780.884L312.537 780.884C312.648 783.659 312.885 786.555 313.273 789.544L363.9 789.537 363.9 789.541 371.556 789.541 378.706 789.541 388.253 789.541 388.253 789.534 427.133 789.53C427.133 789.53 428.057 785.383 425.741 780.717 426.049 780.559 426.29 780.302 426.29 779.933 426.29 779.411 425.865 778.986 425.342 778.986L424.727 778.986C422.852 776.188 419.695 773.366 414.326 771.253 406.714 768.261 397.93 765.616 388.249 760.314L388.249 624.157 388.249 607.46 388.249 607.46C388.249 602.536 387.526 597.809 386.234 593.371L387.453 585.735C387.506 585.752 387.533 585.809 387.59 585.819 387.64 585.825 387.69 585.829 387.737 585.829 388.196 585.829 388.598 585.494 388.671 585.032L389.257 581.323C400.223 624.729 415.467 668.39 433.169 711.89L433.169 789.541 440.824 789.541 440.824 789.541 443.285 789.541C443.285 789.541 443.285 789.541 443.285 789.541L447.663 789.541 457.521 789.541 457.521 789.541 489.955 789.537 489.955 789.541 489.955 789.541 489.955 789.541 500.974 789.541 500.974 789.541 514.311 789.541 514.311 789.537 557.145 789.534C557.145 789.534 558.132 785.105 555.511 780.251 555.555 780.144 555.642 780.061 555.642 779.937 555.642 779.441 555.247 779.056 554.761 779.016 552.89 776.211 549.73 773.376 544.341 771.257 535.701 767.862 525.568 764.93 514.311 758.034L514.311 624.164 620.813 624.164 620.813 632.907C610.429 657.916 602.663 679.269 598.914 691.31L620.813 706.119 620.813 706.119 605.508 695.769C600.882 706.795 593.434 720.69 581.554 735.255 581.665 735.315 581.785 735.372 581.895 735.432 580.928 734.924 580.011 734.425 579.074 734.053 573.865 743.182 562.718 764.435 562.584 776.958 562.557 779.264 562.534 781.631 562.524 784.121 562.514 786.682 564.586 788.777 567.143 788.777L620.809 789.236 620.809 789.541 645.162 789.541 645.162 789.443 663.255 789.597C666.08 789.597 668.29 787.073 667.834 784.285 666.117 773.784 660.195 765.576 652.503 758.563 649.554 755.875 647.144 753.154 645.162 750.382L645.162 715.375C650.29 707.023 661.303 689.081 674.884 666.947 675.795 668.725 676.695 670.439 677.595 672.166L677.595 789.541 688.615 789.541 688.615 789.537 701.951 789.537 701.951 715.666C702.353 716.335 702.782 717.058 703.16 717.691L721.658 712.985 708.797 716.255C711.87 723.265 715.696 732.52 718.612 741.317 719.338 741.669 720.095 742.01 720.878 742.342 719.78 741.88 718.715 741.401 717.735 740.902 713.651 753.475 713.075 767.869 713.313 777.724 713.383 780.713 713.523 783.304 713.667 785.276 713.845 787.686 715.857 789.544 718.274 789.544L834.751 789.544C834.751 789.544 834.754 789.544 834.754 789.544L925.403 789.544 926.873 789.544 1012.18 789.544C1013.57 789.544 1014.7 788.422 1014.7 787.027 1014.7 785.276 1014.7 783.488 1014.7 781.687 1015.22 781.687 1015.65 781.262 1015.65 780.74 1015.65 780.218 1015.22 779.793 1014.7 779.793L1014.7 779.793C1014.66 757.435 1014.1 732.992 1007.83 731.198 1006.01 730.679 1005.39 731.449 1004.7 732.524 1004.88 729.062 1005.09 725.106 1005.34 720.865L1014.52 720.865C1019.58 689.593 1024.31 656.272 1028.16 624.16L1072.34 624.16 1072.34 759.005C1064.66 764.14 1056.56 768.381 1049.94 771.581 1036.04 778.297 1038.46 789.544 1038.46 789.544L1099.48 789.544C1099.49 789.658 1099.51 789.735 1099.51 789.745 1099.61 790.187 1100 790.491 1100.43 790.491 1100.5 790.491 1100.56 790.484 1100.63 790.471 1101.07 790.377 1101.31 789.976 1101.32 789.544L1140.6 789.544 1202.58 789.544C1202.58 789.544 1202.58 789.544 1202.58 789.544L1211.75 789.544 1218.9 789.544 1226.55 789.544 1226.55 738.044 1239.11 738.044 1250.94 699.183 1251.23 699.183C1251.75 699.183 1252.17 698.758 1252.17 698.236 1252.17 697.814 1251.87 697.519 1251.48 697.396L1273.79 624.15 1291.06 624.15 1291.06 789.53 1300.61 789.53 1315.42 789.53 1315.42 624.15 1348.74 624.15 1375.93 789.53 1390.74 789.53 1364.12 624.15 1429.59 624.15 1429.59 789.53 1439.14 789.53 1446.29 789.53 1453.95 789.53 1453.95 624.15 1528.01 624.15 1528.01 789.53 1542.81 789.53 1542.81 604.849 1590.46 315.59 1573.77 315.59ZM1375.51 291.452C1375.51 291.455 1375.51 291.458 1375.51 291.462L1375.51 291.462C1375.51 291.458 1375.51 291.455 1375.51 291.452ZM1400.65 449.113C1400.43 449.096 1400.22 449.079 1400 449.066 1400.22 449.079 1400.43 449.099 1400.65 449.113ZM1395.96 448.728C1395.69 448.704 1395.43 448.677 1395.17 448.654 1395.43 448.681 1395.69 448.704 1395.96 448.728ZM1367.47 292.888C1367.77 292.831 1368.08 292.774 1368.38 292.717 1368.08 292.774 1367.78 292.831 1367.47 292.888ZM1356.55 448.764C1354.07 451.546 1351.75 454.475 1349.62 457.545L1337.45 458.385 1335.91 448.768 1356.55 448.768ZM1454.89 296.362C1453.68 295.94 1452.45 295.542 1451.11 295.261 1452.44 295.542 1453.69 295.927 1454.89 296.362ZM1457.76 297.587C1457.3 297.366 1456.87 297.122 1456.39 296.925 1456.86 297.129 1457.3 297.363 1457.76 297.587ZM1436.11 292.362C1436.2 292.375 1436.28 292.389 1436.37 292.406 1436.28 292.392 1436.2 292.379 1436.11 292.362ZM1442.75 293.581C1443.03 293.634 1443.3 293.681 1443.59 293.738 1443.3 293.681 1443.03 293.634 1442.75 293.581ZM1396.51 206.306C1399.64 206.53 1402.66 206.644 1405.45 206.698 1401.22 206.631 1396.47 206.403 1391.57 205.841 1393.23 206.035 1394.88 206.189 1396.51 206.306ZM1381.89 204.214C1382.56 204.371 1383.24 204.508 1383.92 204.646 1384.79 204.823 1385.67 204.984 1386.55 205.131 1388.23 205.412 1389.9 205.647 1391.57 205.844 1386.5 205.262 1381.32 204.301 1376.46 202.698 1376.77 202.801 1377.07 202.918 1377.38 203.016 1378.86 203.474 1380.37 203.859 1381.89 204.214ZM1374.83 202.085C1373.68 201.663 1372.53 201.238 1371.44 200.736 1371.84 200.923 1372.26 201.101 1372.68 201.278 1373.38 201.573 1374.11 201.817 1374.83 202.085ZM1365.38 269.435C1365.35 269.419 1365.33 269.399 1365.31 269.382 1365.33 269.399 1365.35 269.419 1365.38 269.435ZM1203.46 431.954 1204.3 431.763C1204.4 431.739 1204.48 431.679 1204.58 431.649 1205 431.887 1205.46 432.061 1205.95 432.064L1202.47 432.064C1202.8 432.064 1203.13 432.031 1203.46 431.954ZM1319.92 448.764 1321.66 459.373C1320.73 459.373 1319.81 459.349 1318.86 459.413L1192.19 468.146C1183.05 468.739 1174.49 471.648 1167.12 476.307L1170.02 448.768 1319.92 448.768ZM898.182 79.7293 898.182 79.7293C898.182 80.8808 898.065 82.0056 897.844 83.0935 898.065 82.0056 898.182 80.8808 898.182 79.7293ZM961.93 475.059C961.428 474.951 960.936 474.861 960.427 474.731 960.936 474.861 961.432 474.951 961.93 475.059L961.93 475.059ZM960.31 474.707C958.877 474.346 957.395 473.867 955.888 473.331 957.395 473.867 958.877 474.346 960.31 474.707ZM903.096 562.32C897.167 562.32 893.077 565.5 890.272 570.839 888.651 565.078 887.018 559.431 885.364 553.921 885.502 553.881 885.649 553.867 885.759 553.764 885.933 553.603 886.007 553.389 886.03 553.171L953.009 560.452 952.815 562.316 903.096 562.316ZM909.064 624.15 941.498 624.15 941.498 750.616C939.743 753.964 937.484 757.141 933.795 760.358 933.229 760.85 932.711 761.352 932.202 761.857 931.7 745.964 930.173 732.497 925.581 731.185 924.007 730.736 922.969 731.218 921.902 732.005 922.2 731.784 922.497 731.586 922.802 731.429 921.738 728.949 920.559 725.959 919.25 721.678L927.907 721.507C921.473 695.337 915.264 669.046 909.064 643.602L909.064 624.15ZM917.778 734.813C917.647 734.874 917.5 734.92 917.359 734.974 917.5 734.92 917.647 734.874 917.778 734.813ZM915.89 735.429C915.692 735.476 915.498 735.523 915.284 735.563 915.498 735.523 915.692 735.473 915.89 735.429ZM879.901 726.281C879.938 726.281 879.975 726.277 880.012 726.277 879.975 726.277 879.938 726.281 879.901 726.281ZM1085.69 607.453 1121.42 607.453 1121.42 607.453 1080.55 607.453 1085.69 607.453ZM1096.71 624.15 1117.66 624.15 1096.71 716.975 1096.71 624.15ZM864.798 79.7293 864.798 79.7293C864.798 80.8808 864.915 82.0056 865.136 83.0935 864.915 82.0056 864.798 80.8808 864.798 79.7293ZM371.656 454.586C371.194 454.489 370.742 454.321 370.277 454.251 368.65 454 320.26 455.446 281.034 456.668L282.333 448.764 416.639 448.764 417.449 456.45C412.719 454.308 407.511 453.19 402.051 453.427 402.051 453.424 390.154 453.916 371.656 454.586ZM204.18 441.149C204.03 441.152 203.879 441.152 203.729 441.156 203.879 441.152 204.03 441.152 204.18 441.149ZM208.864 441.059 208.864 441.059C208.85 441.059 208.833 441.059 208.82 441.059 208.837 441.059 208.85 441.059 208.864 441.059ZM198.995 441.203C198.962 441.203 198.928 441.203 198.898 441.203 198.928 441.203 198.962 441.203 198.995 441.203ZM233.922 431.294C234.297 431.579 234.699 431.81 235.091 432.064L233.598 432.064 233.922 431.294ZM285.59 360.978 281.704 356.409C284.85 356.787 287.893 357.142 290.842 357.48L285.59 360.978ZM197.469 291.552C199.002 291.425 200.548 291.348 202.108 291.348 200.545 291.351 198.999 291.425 197.469 291.552ZM176.323 297.755C176.882 297.46 177.441 297.166 178.01 296.891 177.441 297.166 176.882 297.46 176.323 297.755ZM180.183 295.907C180.842 295.622 181.505 295.351 182.174 295.094 181.502 295.348 180.839 295.622 180.183 295.907ZM184.26 294.33C185.006 294.076 185.759 293.845 186.519 293.624 185.759 293.845 185.006 294.076 184.26 294.33ZM188.521 293.062C189.358 292.851 190.205 292.677 191.055 292.503 190.205 292.673 189.358 292.851 188.521 293.062ZM192.93 292.128C193.907 291.964 194.901 291.85 195.896 291.736 194.901 291.85 193.91 291.967 192.93 292.128ZM169.722 301.835C169.909 301.701 170.087 301.554 170.274 301.424 170.087 301.557 169.909 301.701 169.722 301.835ZM172.751 299.81C173.18 299.542 173.605 299.264 174.04 299.007 173.605 299.264 173.18 299.542 172.751 299.81ZM153.534 320.119C153.56 320.072 153.584 320.025 153.611 319.982 153.584 320.029 153.557 320.075 153.534 320.119ZM227 561.556 248.785 557.884 248.072 562.316 217.697 562.316C220.693 562.293 223.766 562.105 227 561.556ZM232.145 458.218C232.145 458.191 232.168 458.171 232.168 458.144 232.111 457.618 231.616 457.23 231.124 457.307L230.953 457.327C230.197 454.689 229.259 451.717 228.282 448.768L266.356 448.768 265.003 457.173C248.31 457.695 235.425 458.111 232.145 458.218ZM258.014 432.064C258.633 431.659 259.276 431.318 259.862 430.839L273.613 419.571C273.8 419.802 274.072 419.92 274.346 419.92 274.557 419.92 274.771 419.849 274.945 419.702L275.193 419.498 283.033 427.83 284.542 429.443C285.466 430.414 286.531 431.271 287.662 432.067L258.014 432.067ZM414.56 431.78C414.624 431.776 414.684 431.776 414.748 431.773 414.781 431.773 414.815 431.77 414.845 431.77L414.875 432.064 402.657 432.064C406.155 432.064 410.185 431.957 414.56 431.78ZM489.958 738.027C488.535 733.682 487.367 728.63 486.296 723.238L487.417 723.234 467.657 624.15 489.958 624.15 489.958 738.027ZM489.958 741.388 489.958 741.445C479.538 750.616 466.864 751.366 457.98 750.315 466.851 751.343 479.534 750.573 489.958 741.388ZM500.974 607.453 500.974 607.453 506.106 607.453 500.974 607.453 500.974 607.453ZM511.703 152.807C511.311 152.945 510.936 153.135 510.565 153.343 510.936 153.132 511.315 152.951 511.703 152.807ZM513.839 152.412C513.283 152.412 512.747 152.523 512.219 152.66 512.747 152.516 513.283 152.416 513.839 152.412ZM352.117 366.859C357.701 366.976 364.503 366.545 372.65 365.099L372.935 365.169C372.935 365.169 375.928 364.523 379.924 363.629 379.928 363.629 379.928 363.629 379.928 363.629 383.834 362.755 388.698 361.644 392.722 360.66L380.825 397.947C379.241 401.599 378.579 405.388 378.703 409.077 378.458 417.663 385.987 432.054 402.58 432.064L311.576 432.064C313.896 430.421 315.925 428.288 317.464 425.677L352.117 366.859ZM263.664 562.32 264.836 555.183 320.219 545.85C319.52 551.317 318.934 556.81 318.405 562.316L263.664 562.316ZM362.494 723.342 363.9 723.345 363.9 741.368C363.298 740.742 362.702 740.149 362.093 739.493 362.042 739.543 361.989 739.583 361.939 739.634 361.718 734.753 361.975 729.169 362.494 723.342ZM588.503 737.588C588.708 737.605 588.918 737.612 589.129 737.618 588.922 737.612 588.708 737.605 588.503 737.588ZM583.091 736.022C583.221 736.085 583.355 736.149 583.489 736.212 583.355 736.149 583.224 736.085 583.091 736.022ZM584.717 736.728C584.821 736.768 584.918 736.812 585.022 736.849 584.918 736.812 584.821 736.765 584.717 736.728ZM586.676 737.327C586.786 737.351 586.91 737.364 587.02 737.387 586.91 737.364 586.786 737.351 586.676 737.327ZM590.652 737.588C590.877 737.572 591.094 737.565 591.325 737.538 591.094 737.561 590.877 737.572 590.652 737.588ZM596.936 736.065C596.792 736.122 596.658 736.196 596.51 736.249 596.654 736.192 596.792 736.122 596.936 736.065ZM735.714 745.753C736.343 745.779 736.976 745.81 737.615 745.803 736.976 745.81 736.346 745.779 735.714 745.753ZM721.049 742.399C721.785 742.706 722.545 743.001 723.325 743.279 722.542 743.001 721.785 742.706 721.049 742.399ZM723.683 743.403C724.413 743.657 725.159 743.898 725.922 744.119 725.156 743.895 724.413 743.654 723.683 743.403ZM726.502 744.276C727.211 744.474 727.931 744.658 728.667 744.822 727.931 744.661 727.215 744.474 726.502 744.276ZM729.467 744.986C730.154 745.127 730.843 745.257 731.546 745.364 730.84 745.257 730.154 745.123 729.467 744.986ZM732.544 745.488C733.203 745.572 733.863 745.649 734.535 745.699 733.863 745.649 733.203 745.572 732.544 745.488ZM761.65 735.449C762.098 735.004 762.553 734.606 762.995 734.124 762.55 734.606 762.095 735.004 761.65 735.449ZM738.954 745.746C739.557 745.719 740.159 745.696 740.765 745.635 740.159 745.699 739.557 745.719 738.954 745.746ZM742.234 745.438C742.81 745.354 743.389 745.284 743.969 745.17 743.389 745.284 742.814 745.354 742.234 745.438ZM745.528 744.795C746.087 744.658 746.643 744.534 747.202 744.367 746.643 744.534 746.084 744.658 745.528 744.795ZM748.822 743.788C749.361 743.594 749.897 743.419 750.432 743.192 749.897 743.416 749.361 743.594 748.822 743.788ZM752.099 742.385C752.618 742.131 753.137 741.9 753.653 741.612 753.137 741.9 752.618 742.127 752.099 742.385ZM755.32 740.564C755.825 740.243 756.334 739.952 756.836 739.593 756.334 739.952 755.825 740.243 755.32 740.564ZM758.496 738.278C758.982 737.89 759.474 737.535 759.953 737.11 759.474 737.535 758.982 737.89 758.496 738.278ZM765.928 730.612C765.918 730.622 765.911 730.632 765.901 730.646 759.949 723.817 756.16 716.744 752.233 705.205L753.616 704.854 719.579 594.057C748.233 547.29 773.928 505.259 774.246 504.416 775.167 501.965 775.742 499.468 776.017 496.968 776.285 494.979 776.348 492.964 776.157 490.932 774.203 469.82 754.406 454.1 731.144 455.188L664.939 458.646C660.45 456.889 655.559 456.079 650.612 456.467L626.684 458.352C626.497 455.171 626.303 451.971 626.108 448.768L939.292 448.768C939.295 448.868 939.298 448.975 939.302 449.076L939.717 464.815C939.717 464.809 939.713 464.702 939.713 464.625 939.717 464.745 939.717 464.839 939.717 464.839L939.717 464.839 939.717 464.842 823.229 464.584C799.559 464.782 781.537 486.584 784.874 510.983 784.901 511.174 784.948 511.358 784.978 511.552 785.356 515.472 786.34 519.496 787.987 523.53L866.535 722.736 884.712 722.378 884.712 722.378 876.085 722.548C876.467 723.716 876.859 725.025 877.267 726.548 872.634 727.308 868.359 729.688 866.247 734.154 861.169 744.892 849.764 752.729 832.605 760.374 828.367 762.262 825.285 764.997 823.042 768.047 821.124 767.19 819.142 766.272 817.063 765.262 798.686 756.324 774.979 741.923 765.928 730.612ZM939.67 462.546C939.673 462.673 939.673 462.76 939.677 462.877 939.673 462.763 939.67 462.673 939.67 462.546ZM939.697 463.811C939.697 463.855 939.697 463.875 939.7 463.918 939.697 463.878 939.697 463.855 939.697 463.811ZM838.062 779.783 838.062 779.783C837.697 778.973 837.225 778.169 836.666 777.366 837.228 778.169 837.697 778.976 838.062 779.783ZM836.314 776.864C836.07 776.542 835.795 776.224 835.514 775.906 835.795 776.228 836.07 776.546 836.314 776.864ZM834.701 775.06C834.44 774.802 834.189 774.541 833.901 774.283 834.192 774.541 834.44 774.802 834.701 775.06ZM831.946 772.733C831.712 772.566 831.44 772.398 831.189 772.231 831.44 772.398 831.708 772.566 831.946 772.733ZM829.208 771.012C828.916 770.845 828.622 770.681 828.314 770.517 828.625 770.681 828.916 770.848 829.208 771.012ZM836.736 789.085C836.726 789.092 836.716 789.099 836.706 789.105 836.716 789.099 836.726 789.089 836.736 789.085ZM838.236 787.957C838.263 787.927 838.283 787.887 838.306 787.857 838.283 787.89 838.266 787.927 838.236 787.957ZM839.176 786.297C839.21 786.193 839.216 786.083 839.24 785.976 839.216 786.083 839.21 786.193 839.176 786.297ZM839.371 785.333C839.401 785.001 839.394 784.66 839.347 784.315 839.23 783.438 839.026 782.558 838.765 781.677 839.022 782.561 839.23 783.442 839.347 784.315 839.394 784.66 839.401 785.001 839.371 785.333ZM967.742 727.767C967.818 727.78 967.892 727.787 967.969 727.8 967.895 727.787 967.818 727.777 967.742 727.767ZM974.169 729.437C974.232 729.461 974.289 729.491 974.353 729.518 974.289 729.491 974.232 729.461 974.169 729.437ZM976.696 730.572C976.927 730.693 977.141 730.816 977.365 730.944 977.141 730.816 976.927 730.689 976.696 730.572ZM978.912 731.914C979.143 732.075 979.367 732.239 979.581 732.406 979.37 732.239 979.143 732.078 978.912 731.914ZM980.776 733.498C980.937 733.665 981.118 733.826 981.262 733.996 981.118 733.826 980.94 733.665 980.776 733.498ZM997.909 736.099C998.461 736.099 998.956 736.065 999.418 736.012 998.956 736.065 998.461 736.099 997.909 736.099ZM999.857 735.938C1000.14 735.891 1000.42 735.844 1000.67 735.781 1000.42 735.844 1000.14 735.891 999.857 735.938ZM1001.1 735.65C1001.31 735.583 1001.51 735.51 1001.69 735.429 1001.51 735.51 1001.31 735.58 1001.1 735.65ZM1002.06 735.255C1002.22 735.168 1002.38 735.078 1002.52 734.984 1002.38 735.078 1002.22 735.168 1002.06 735.255ZM1002.82 734.776C1002.96 734.676 1003.08 734.569 1003.19 734.458 1003.08 734.569 1002.96 734.676 1002.82 734.776ZM1003.43 734.244C1003.55 734.12 1003.66 733.99 1003.77 733.863 1003.66 733.993 1003.55 734.12 1003.43 734.244ZM1004.14 733.37C1004.19 733.3 1004.25 733.227 1004.29 733.156 1004.25 733.227 1004.19 733.3 1004.14 733.37ZM1149.68 746.128C1149.26 745.843 1148.67 745.937 1148.37 746.362 1147.6 747.457 1146.73 748.481 1145.84 749.488L1145.84 738.04 1152.89 738.04C1152.9 738.472 1153.14 738.87 1153.57 738.967 1153.64 738.981 1153.71 738.987 1153.78 738.987 1154.21 738.987 1154.61 738.686 1154.7 738.248L1154.75 738.04 1154.96 738.04C1153.97 739.757 1152.32 742.338 1149.68 746.128ZM1292.63 562.32 1292.64 562.263 1304.14 562.32 1292.63 562.32Z" fill="#F5F5F5" transform="matrix(1.00185 0 0 1 -228.155 -8)"/><path d="M1590.47 315.593 1542.82 604.852 1542.82 789.534 1528.02 789.534 1528.02 624.154 1315.43 624.154 1315.43 789.534 1300.62 789.534 1300.62 624.154 1300.62 607.453 1315.43 607.453 1525.69 607.453 1573.77 315.597 1590.47 315.597ZM884.712 789.53 909.064 789.53 909.064 624.15 941.498 624.15 941.498 789.53 965.85 789.53 965.85 624.15 1072.35 624.154 1072.35 789.53 1096.71 789.53 1096.71 624.154 1129.14 624.154 1129.14 789.534 1145.84 789.534 1145.84 607.453 884.712 607.45 884.712 789.53ZM1150.94 343.257 1128.05 562.32 1104.07 562.32C1089.05 562.32 1085.69 582.525 1085.69 607.453L1153.49 607.453 1153.49 605.498 1184.07 315.597 1172.19 315.597C1161.73 315.593 1152.77 327.249 1150.94 343.257ZM249.863 562.32 104.798 562.32 69.2117 343.257C66.3596 327.249 52.441 315.593 36.1858 315.593L9.61385 315.593 58.0346 607.453 55.3031 607.453 55.3031 789.534 72.0034 789.534 72.0034 607.453 289.845 607.453C289.841 582.525 271.943 562.32 249.863 562.32ZM440.828 789.53 457.525 789.53 457.525 624.15 489.958 624.15 489.958 789.527 514.311 789.527 514.311 624.15 620.813 624.15 620.813 789.527 645.165 789.527 645.165 624.15 677.599 624.15 677.599 789.527 701.951 789.527 701.951 607.447 440.824 607.45 440.824 789.53ZM500.978 607.453C500.978 582.525 497.617 562.32 482.594 562.32L458.619 562.32 435.723 343.257C433.892 327.249 424.937 315.593 414.48 315.593L402.597 315.593 433.175 605.498 433.175 607.453 500.978 607.453ZM926.896 389.391C937.35 389.391 945.826 380.915 945.826 370.461L946.124 298.495C946.124 288.04 937.651 279.565 927.194 279.565L776.891 279.565C766.437 279.565 757.961 288.04 757.961 298.495L757.663 370.461C757.663 380.915 766.139 389.391 776.593 389.391L926.896 389.391M284.917 269.877C295.371 269.877 303.847 261.402 303.847 250.948L303.847 109.133C303.847 98.6792 295.371 90.2035 284.917 90.2035L78.6146 90.2035C68.1606 90.2035 59.6849 98.6792 59.6849 109.133L59.6849 250.951C59.6849 261.405 68.1606 269.881 78.6146 269.881L284.917 269.881M898.182 79.7293C898.182 70.5105 890.71 63.039 881.491 63.039 872.273 63.039 864.801 70.5105 864.801 79.7293 864.801 88.9482 872.273 96.4197 881.491 96.4197 890.707 96.4197 898.182 88.9482 898.182 79.7293M1046.52 117.586C1046.52 115.493 1044.82 113.8 1042.73 113.8L871.784 113.8C869.692 113.8 867.998 115.493 867.998 117.586 867.998 119.678 869.692 121.371 871.784 121.371L1042.73 121.371C1044.82 121.371 1046.52 119.678 1046.52 117.586ZM1046.52 155.445C1046.52 153.353 1044.82 151.659 1042.73 151.659L871.784 151.659C869.692 151.659 867.998 153.353 867.998 155.445 867.998 157.537 869.692 159.231 871.784 159.231L1042.73 159.231C1044.82 159.231 1046.52 157.537 1046.52 155.445ZM1046.52 193.301C1046.52 191.209 1044.82 189.515 1042.73 189.515L871.784 189.515C869.692 189.515 867.998 191.209 867.998 193.301 867.998 195.393 869.692 197.087 871.784 197.087L1042.73 197.087C1044.82 197.087 1046.52 195.393 1046.52 193.301ZM726.656 109.826C737.11 109.826 745.585 101.35 745.585 90.8964L745.883 18.9298C745.883 8.47572 737.407-8.91937e-15 726.953-8.91937e-15L413.024-8.91937e-15C402.566-8.91937e-15 394.094 8.47572 394.094 18.9298L393.793 90.8964C393.793 101.35 402.269 109.826 412.723 109.826L726.656 109.826M728.614 20.9751C728.614 17.477 725.779 14.645 722.28 14.645 718.786 14.645 715.95 17.4803 715.95 20.9751 715.95 24.4698 718.786 27.3051 722.28 27.3051 725.779 27.3084 728.614 24.4731 728.614 20.9751M1306.57 191.815 1138.52 191.815C1128.06 191.815 1119.59 200.291 1119.59 210.745L1119.59 233.765 1119.59 256.785C1119.59 267.24 1128.06 275.715 1138.52 275.715L1306.57 275.715C1317.03 275.715 1325.5 267.24 1325.5 256.785L1325.5 233.765 1325.5 210.745C1325.5 200.291 1317.03 191.815 1306.57 191.815M287.652 111.179C287.652 107.68 284.817 104.849 281.322 104.849 277.827 104.849 274.992 107.684 274.992 111.179 274.992 114.673 277.827 117.509 281.322 117.509 284.82 117.512 287.652 114.673 287.652 111.179M420.371 201.948C419.635 201.211 418.437 201.211 417.697 201.948L400.94 218.702 417.697 235.459C418.065 235.827 418.55 236.011 419.033 236.011 419.518 236.011 420 235.827 420.368 235.459 421.108 234.722 421.108 233.524 420.368 232.784L406.285 218.702 420.368 204.622C421.111 203.883 421.111 202.684 420.371 201.948ZM473.854 201.948C473.117 201.211 471.919 201.211 471.179 201.948 470.439 202.684 470.439 203.883 471.179 204.622L485.262 218.702 471.179 232.784C470.439 233.521 470.439 234.719 471.179 235.459 471.547 235.827 472.033 236.011 472.515 236.011 472.997 236.011 473.482 235.827 473.85 235.459L490.604 218.702 473.854 201.948ZM453.026 202.185C452.058 201.78 450.954 202.219 450.542 203.176L437.534 233.373C437.122 234.334 437.561 235.446 438.521 235.861 438.766 235.964 439.02 236.015 439.268 236.015 440.001 236.015 440.697 235.589 441.005 234.873L454.013 204.676C454.428 203.708 453.986 202.597 453.026 202.185Z" fill="#F5F5F5" transform="matrix(1.00185 0 0 1 -228.155 -8)"/><path d="M503.86 175.707 387.69 175.707C377.233 175.707 368.761 184.183 368.761 194.637L368.761 217.657 368.761 240.678C368.761 251.132 377.233 259.607 387.69 259.607L503.86 259.607C514.314 259.607 522.79 251.132 522.79 240.678L522.79 217.657 522.79 194.637C522.79 184.179 514.314 175.707 503.86 175.707ZM420.371 232.781C421.111 233.517 421.111 234.716 420.371 235.456 420.003 235.824 419.518 236.008 419.036 236.008 418.55 236.008 418.068 235.824 417.7 235.456L400.943 218.698 417.7 201.944C418.437 201.208 419.635 201.208 420.375 201.944 421.115 202.681 421.115 203.879 420.375 204.619L406.292 218.698 420.371 232.781ZM454.013 204.669 441.005 234.866C440.697 235.583 440.001 236.008 439.268 236.008 439.02 236.008 438.766 235.958 438.521 235.854 437.561 235.439 437.122 234.331 437.534 233.367L450.542 203.17C450.954 202.212 452.058 201.777 453.026 202.179 453.986 202.597 454.428 203.708 454.013 204.669ZM473.854 235.456C473.485 235.824 473 236.008 472.518 236.008 472.036 236.008 471.551 235.824 471.182 235.456 470.442 234.719 470.442 233.521 471.182 232.781L485.265 218.698 471.182 204.619C470.442 203.883 470.442 202.684 471.182 201.944 471.919 201.208 473.117 201.208 473.857 201.944L490.611 218.698 473.854 235.456ZM757.961 321.518 757.961 298.498C757.961 288.044 766.433 279.568 776.891 279.568L927.194 279.568C937.648 279.568 946.124 288.044 946.124 298.498L946.124 321.518 757.961 321.518ZM898.714 358.949 811.895 358.949C809.803 358.949 808.109 357.255 808.109 355.163 808.109 353.071 809.803 351.377 811.895 351.377L898.714 351.377C900.806 351.377 902.5 353.071 902.5 355.163 902.5 357.255 900.806 358.949 898.714 358.949ZM219.431 242.073 144.101 242.073C142.012 242.073 140.315 240.38 140.315 238.287 140.315 236.195 142.008 234.502 144.101 234.502L219.431 234.502C221.52 234.502 223.217 236.195 223.217 238.287 223.217 240.38 221.52 242.073 219.431 242.073ZM274.989 206.825 88.5398 206.825C86.451 206.825 84.7538 205.131 84.7538 203.039 84.7538 200.947 86.4476 199.253 88.5398 199.253L274.989 199.253C277.078 199.253 278.775 200.947 278.775 203.039 278.775 205.131 277.081 206.825 274.989 206.825ZM274.989 169.427 88.5398 169.427C86.451 169.427 84.7538 167.734 84.7538 165.641 84.7538 163.549 86.4476 161.855 88.5398 161.855L274.989 161.855C277.078 161.855 278.775 163.549 278.775 165.641 278.775 167.734 277.081 169.427 274.989 169.427ZM1057.31 38.432 855.88 38.432C844.81 38.432 835.836 47.4064 835.836 58.4764L835.836 212.947C835.836 224.017 844.81 232.992 855.88 232.992L1057.31 232.992C1068.38 232.992 1077.35 224.017 1077.35 212.947L1077.35 58.4764C1077.36 47.4064 1068.38 38.432 1057.31 38.432ZM881.488 63.039C890.707 63.039 898.178 70.5105 898.178 79.7293 898.178 88.9482 890.707 96.4197 881.488 96.4197 872.269 96.4197 864.798 88.9448 864.798 79.7293 864.798 70.5105 872.273 63.039 881.488 63.039ZM1042.73 197.087 871.78 197.087C869.688 197.087 867.994 195.393 867.994 193.301 867.994 191.209 869.688 189.515 871.78 189.515L1042.73 189.515C1044.82 189.515 1046.51 191.209 1046.51 193.301 1046.52 195.393 1044.82 197.087 1042.73 197.087ZM1042.73 159.231 871.78 159.231C869.688 159.231 867.994 157.537 867.994 155.445 867.994 153.353 869.688 151.659 871.78 151.659L1042.73 151.659C1044.82 151.659 1046.51 153.353 1046.51 155.445 1046.51 157.537 1044.82 159.231 1042.73 159.231ZM1042.73 121.371 871.78 121.371C869.688 121.371 867.994 119.678 867.994 117.586 867.994 115.493 869.688 113.8 871.78 113.8L1042.73 113.8C1044.82 113.8 1046.51 115.493 1046.51 117.586 1046.51 119.678 1044.82 121.371 1042.73 121.371ZM726.957 0 413.024 0C402.57 0 394.094 8.47572 394.094 18.9298L394.094 41.9501 745.883 41.9501 745.883 18.9298C745.887 8.47572 737.407 0 726.957 0ZM722.28 27.3084C718.786 27.3084 715.95 24.4731 715.95 20.9784 715.95 17.4803 718.786 14.6484 722.28 14.6484 725.779 14.6484 728.614 17.4837 728.614 20.9784 728.614 24.4731 725.775 27.3084 722.28 27.3084ZM692.8 79.3812 453.709 79.3812C451.62 79.3812 449.923 77.6874 449.923 75.5952 449.923 73.5031 451.616 71.8093 453.709 71.8093L692.8 71.8093C694.888 71.8093 696.586 73.5031 696.586 75.5952 696.586 77.6874 694.892 79.3812 692.8 79.3812ZM1325.5 256.785C1325.5 267.24 1317.02 275.715 1306.57 275.715L1138.51 275.715C1128.06 275.715 1119.58 267.24 1119.58 256.785L1119.58 251.095C1125.04 260.963 1142.3 270.373 1158.57 247.095 1169.44 231.532 1176.18 217.848 1195.18 221.139 1214.55 224.489 1218.97 240.731 1239.71 240.731 1260.44 240.731 1265.62 214.32 1282.85 214.32 1294.01 214.32 1299.8 217.969 1308.24 218.096 1315.22 218.203 1321.14 213.389 1324.69 205.292 1325.21 207.019 1325.5 208.85 1325.5 210.748L1325.5 233.768 1325.5 256.785M284.917 90.2035 78.6146 90.2035C68.1606 90.2035 59.6849 98.6758 59.6849 109.133L59.6849 132.154 303.847 132.154 303.847 109.133C303.847 98.6758 295.371 90.2035 284.917 90.2035ZM281.322 117.512C277.827 117.512 274.992 114.677 274.992 111.182 274.992 107.684 277.824 104.852 281.322 104.852 284.82 104.852 287.656 107.684 287.656 111.182 287.652 114.677 284.82 117.512 281.322 117.512ZM36.1825 315.593 135.973 315.593C152.232 315.593 166.147 327.252 168.995 343.257L204.589 562.32 104.798 562.32 69.2117 343.257C66.3596 327.249 52.441 315.593 36.1825 315.593ZM348.274 562.32 249.863 562.32C271.943 562.32 289.841 582.525 289.841 607.453L58.0312 607.453 9.61385 315.593 0 315.593 47.6475 604.852 47.6475 789.534 62.4532 789.534 62.4532 624.154 136.509 624.154 136.509 789.534 144.164 789.534 151.314 789.534 160.861 789.534 160.861 624.154 275.036 624.154 275.036 789.534 282.691 789.534 289.838 789.534 299.388 789.534 299.388 624.154 363.897 624.154 363.897 789.534 371.552 789.534 378.703 789.534 388.249 789.534 388.249 624.154 388.249 607.457 388.249 607.457C388.253 582.525 370.354 562.32 348.274 562.32ZM1429.6 624.15 1429.6 789.53 1439.15 789.53 1446.3 789.53 1453.96 789.53 1453.96 624.15 1429.6 624.15ZM1300.62 607.453 1315.43 607.453 1525.69 607.453 1573.77 315.597 1554.28 315.597 1454.5 315.597C1438.24 315.597 1424.32 327.252 1421.47 343.26L1385.88 562.323 1340.6 562.323 1242.19 562.323C1220.11 562.323 1202.21 582.528 1202.21 607.457L1202.21 607.457 1202.21 624.154 1202.21 789.534 1211.76 789.534 1218.91 789.534 1226.57 789.534 1226.57 624.154 1291.07 624.154 1291.07 789.534 1300.62 789.534 1300.62 624.154 1300.62 607.453ZM1104.07 562.32 1128.05 562.32 1150.94 343.257C1152.77 327.249 1161.73 315.593 1172.19 315.593L1182.72 315.593 1182.72 315.59 996.955 315.59C986.497 315.59 977.543 327.249 975.708 343.253L952.815 562.316 903.099 562.316C888.076 562.316 884.715 582.521 884.715 607.45L1085.69 607.45C1085.69 582.525 1089.05 562.32 1104.07 562.32ZM433.172 607.453 433.172 607.453 433.172 624.154 433.172 789.534 444.192 789.534 444.192 624.154 489.958 624.154 489.958 789.534 500.978 789.534 500.978 624.154 500.978 607.457 433.172 607.453 433.172 607.453ZM683.567 562.32 633.851 562.32 610.955 343.257C609.12 327.249 600.166 315.593 589.708 315.593L414.473 315.593C424.931 315.593 433.885 327.252 435.716 343.257L458.613 562.32 482.587 562.32C497.61 562.32 500.971 582.525 500.971 607.453L701.948 607.453C701.955 582.525 698.591 562.32 683.567 562.32ZM677.599 789.53 688.619 789.53 688.619 624.15 677.599 624.15 677.599 789.53Z" fill="#E0E0E0" fill-rule="evenodd" transform="matrix(1.00185 0 0 1 -228.155 -8)"/><path d="M1014.71 787.013C1014.71 788.409 1013.58 789.53 1012.19 789.53L926.883 789.53 925.413 789.53 834.764 789.53C837.549 789.527 839.719 787.077 839.35 784.315 838.654 779.073 835.899 773.633 825.01 768.914 824.377 768.639 823.701 768.328 823.045 768.033 825.288 764.984 828.371 762.249 832.609 760.361 849.768 752.719 861.176 744.879 866.25 734.14 871.596 722.833 890.797 724.714 894.66 733.166 901.435 728.801 904.723 735.787 912.837 735.787 920.948 735.787 921.215 729.943 925.584 731.188 930.177 732.5 931.703 745.967 932.205 761.861 932.714 761.355 933.233 760.853 933.799 760.361 942.853 752.464 943.446 744.879 948.52 734.14 953.866 722.833 978.54 727.258 982.403 735.714 989.178 731.345 989.798 736.099 997.912 736.099 1006.02 736.099 1003.48 729.943 1007.85 731.191 1014.8 733.176 1014.73 763.049 1014.71 787.013ZM202.108 291.351C175.851 291.351 153.192 309.762 147.81 335.46L125.204 425.416C122.647 432.71 127.34 437.283 135.022 438.166 156.613 440.66 195.46 442.267 224.041 440.409 228.188 440.138 231.562 436.878 233.183 433.048L241.98 412.257C244.192 407.022 246.167 401.699 247.942 396.313L249.371 397.833 287.093 362.742 250.439 319.667C240.975 302.876 223.02 291.351 202.108 291.351ZM631.498 248.839C631.431 248.812 631.371 248.772 631.304 248.745 567.87 223.294 507.412 223.586 443.218 248.457 432.185 250.636 422.497 258.278 418.279 269.589 413.817 281.55 409.854 293.664 405.857 305.765 402.587 316.049 399.346 326.342 396.22 336.669L449.966 351.726C452.805 374.589 454.937 395.189 454.937 405.475 454.937 421.787 454.783 446.542 454.683 466.238 454.448 472.387 454.92 482.567 455.687 496.619 485.948 504.406 496.77 466.864 540.26 465.15L626.688 458.348C625.583 439.733 624.281 420.274 624.281 405.475 624.281 394.924 625.894 373.534 628.097 349.968L679.182 322.533 650.595 265.897C646.712 257.448 639.652 251.54 631.498 248.839ZM1165.31 279.856C1162.93 266.419 1153.06 256.223 1140.77 252.708 1129.34 248.253 1113.73 242.991 1093.35 238.8 1086.81 225.333 1062.91 215.344 1034.43 215.344 1005.19 215.344 980.776 225.865 975.016 239.874 952.855 245.26 937.219 252.163 926.658 256.551 926.24 256.725 925.855 256.943 925.487 257.184 917.045 261.385 910.323 268.973 907.585 278.768L872.728 390.797C867.64 408.983 878.258 427.846 896.441 432.931 913.791 437.785 931.73 428.322 937.762 411.651 939.335 442.85 939.713 464.832 939.713 464.832 949.806 471.818 958.646 474.962 966.232 475.782 974.018 465.773 986.424 459.667 999.924 460.43 999.957 460.383 999.977 460.35 999.977 460.35L1034.21 463.48C1054.43 465.324 1073.98 471.671 1091.43 482.041 1101.41 487.973 1110.25 493.968 1117.48 497.624 1123.68 500.76 1131.02 496.415 1131.14 489.469L1131.14 489.389C1131.46 473.197 1132.45 452.654 1134.1 429.697 1140.48 432.931 1147.9 434.233 1155.49 432.888 1174.08 429.59 1186.48 411.846 1183.18 393.254L1165.31 279.856ZM1451.11 295.261C1411.96 287.026 1393.52 287.291 1359.73 294.444 1358 294.809 1356.43 295.368 1354.94 296.021 1354.93 296.024 1354.92 296.027 1354.91 296.031 1353.38 296.707 1351.95 297.49 1350.71 298.444 1346.84 301.216 1343.71 305.21 1341.84 310.331L1313.62 386.77 1229.76 395.51C1220.91 396.421 1213.94 403.845 1213.81 412.964 1213.68 422.788 1221.54 430.862 1231.36 430.996L1292.79 431.833C1294.55 432.442 1296.4 432.864 1298.36 432.891L1361.57 433.751C1362.68 435.994 1363.81 438.223 1365.04 440.416 1370.45 450.103 1447.92 455.078 1453.43 440.416 1464.74 410.369 1471.36 366.076 1471.38 322.502 1471.38 307.533 1464.17 298.009 1451.11 295.261ZM1273.76 432.064C1275.2 432.064 1276.22 430.896 1276.04 429.453L1264.64 340.204C1264.46 338.761 1263.14 337.589 1261.7 337.589L1193.9 337.589C1192.46 337.589 1191.44 338.761 1191.62 340.204L1203.02 429.453C1203.2 430.896 1204.52 432.064 1205.96 432.064L1273.76 432.064" fill="#EC5D67" transform="matrix(1.00185 0 0 1 -228.155 -8)"/><path d="M544.869 431.696C544.776 431.759 544.685 431.826 544.592 431.89 541.977 433.714 538.908 434.752 535.721 434.849 532.373 434.956 527.587 434.866 522.227 434.022 514.455 432.801 507.797 429.082 502.879 424.472 502.856 424.475 502.829 424.479 502.806 424.479 502.652 424.496 502.451 424.516 502.25 424.539 502.166 424.549 502.106 424.556 502.016 424.566 501.795 424.589 501.547 424.616 501.282 424.643 501.112 424.66 500.948 424.68 500.757 424.7 500.399 424.737 499.997 424.78 499.572 424.824 499.559 424.824 499.548 424.827 499.538 424.827 499.046 424.877 498.514 424.934 497.938 424.994 497.908 424.998 497.878 425.001 497.848 425.004 497.276 425.065 496.67 425.128 496.02 425.195 495.994 425.199 495.963 425.202 495.933 425.205 495.334 425.269 494.718 425.329 494.062 425.396 493.717 425.433 493.346 425.47 492.984 425.506 492.589 425.547 492.201 425.587 491.786 425.627 491.471 425.657 491.143 425.691 490.818 425.724 486.892 426.119 482.249 426.581 477.117 427.07 477.02 427.08 476.927 427.086 476.833 427.096 475.912 427.184 474.972 427.274 474.021 427.361 473.787 427.384 473.556 427.404 473.321 427.428 472.387 427.515 471.443 427.602 470.486 427.692 470.258 427.712 470.034 427.736 469.803 427.756 468.785 427.85 467.761 427.943 466.72 428.037 466.566 428.051 466.412 428.064 466.258 428.081 465.19 428.178 464.116 428.275 463.028 428.369 462.864 428.382 462.697 428.399 462.533 428.412 461.418 428.512 460.296 428.61 459.162 428.707 459.085 428.713 459.011 428.72 458.934 428.727 450.264 429.477 441.196 430.2 432.553 430.782 432.489 430.785 432.422 430.792 432.359 430.795 431.19 430.872 430.032 430.949 428.881 431.023 428.787 431.03 428.693 431.036 428.599 431.04 427.481 431.11 426.38 431.177 425.286 431.241 425.148 431.251 425.008 431.257 424.87 431.264 423.793 431.328 422.731 431.388 421.68 431.441 421.546 431.448 421.416 431.455 421.285 431.462 420.228 431.518 419.186 431.572 418.159 431.619 418.052 431.626 417.945 431.629 417.837 431.636 416.793 431.686 415.762 431.733 414.751 431.773 414.688 431.776 414.627 431.776 414.564 431.78 410.162 431.96 406.105 432.064 402.593 432.064 385.987 432.064 378.455 417.667 378.699 409.074 378.575 405.385 379.238 401.596 380.821 397.944L392.718 360.656C388.698 361.641 383.834 362.749 379.924 363.626 379.924 363.626 379.921 363.626 379.921 363.626 375.924 364.519 372.932 365.165 372.932 365.165L372.647 365.095C364.499 366.541 357.697 366.97 352.114 366.856L317.461 425.677C311.64 435.549 298.923 438.839 289.051 433.021 287.344 432.014 285.838 430.805 284.536 429.44L283.026 427.826 274.54 418.805 259.858 430.836C250.894 438.18 237.675 436.871 230.327 427.907 229.842 427.317 229.393 426.705 228.982 426.079L228.091 424.706 203.595 387.095 242.452 362.099 254.041 381.993 325.84 334.172C325.893 334.135 325.954 334.118 326.007 334.085 327.189 333.097 328.521 332.21 329.964 331.447L341.241 323.092C343.521 321.404 346.246 320.41 349.078 320.233L376.246 318.546C378.077 318.432 379.416 320.25 378.756 321.963 377.795 324.471 375.871 326.446 373.457 327.513 388.802 328.123 394.6 328.635 402.004 329.147 407.152 329.505 409.124 332.997 408.478 335.922 412.803 336.411 414.681 339.199 414.53 341.797L450.254 352.104 439.007 390.275 508.111 397.482C509.992 397.599 511.81 397.833 513.568 398.158 515.917 398.389 518.244 398.717 520.396 399.045 526.017 399.902 532.437 401.04 538.58 402.228 552.759 404.957 556.689 423.394 544.869 431.696ZM824.253 316.236C816.826 311.694 811.533 308.825 792.269 300.891 793.363 300.998 794.371 301.102 795.248 301.213 802.184 302.063 799.489 290.792 788.366 288.225 779.625 286.206 765.566 282.855 765.566 282.855 755.413 278.189 742.399 274.39 728.62 291.478 728.617 291.482 728.617 291.485 728.614 291.488L712.392 312.514 698.417 421.988C700.76 420.01 702.845 417.643 704.526 414.875L755.859 323.955C760.424 325.539 780.703 332.126 780.703 332.126 781.862 332.508 783.033 332.809 784.228 333.03 788.69 333.86 800.309 335.962 806.566 336.622 807.985 336.773 809.177 336.458 810.107 335.889 812.648 336.649 814.797 337.291 816.23 337.703 819.534 338.664 821.278 336.726 821.11 334.105 822.617 334.573 823.959 334.968 825.047 335.243 831.491 336.886 833.436 330.489 828.505 325.863 831.25 324.384 830.353 319.965 824.253 316.236ZM876.085 722.535C876.467 723.703 876.859 725.012 877.267 726.535 884.37 725.37 892.32 728.051 894.657 733.166 901.432 728.801 904.719 735.787 912.833 735.787 918.842 735.787 920.546 732.591 922.802 731.436 921.738 728.955 920.559 725.966 919.25 721.685L876.085 722.535ZM1140.12 372.031 1067.68 396.156 1031.96 391.178C1029.78 390.867 1027.68 391.199 1025.72 391.972 1024.96 392.143 1024.22 392.41 1023.51 392.802L1019.66 395.446C1018.58 395.359 1017.46 395.483 1016.39 395.845L998.059 404.013 988.696 401.609 913.895 372.028C897.034 368.804 880.755 379.864 877.535 396.725 874.314 413.586 885.368 429.865 902.229 433.088L981.945 432.924C982.684 433.021 983.438 433.088 984.208 433.088L1070.9 433.088C1071.18 433.088 1071.44 432.985 1071.71 432.931 1071.77 432.928 1071.82 432.928 1071.88 432.924L1151.78 433.085C1168.64 429.865 1179.7 413.586 1176.47 396.725 1173.26 379.867 1156.98 368.808 1140.12 372.031ZM581.554 735.245C584.503 736.798 587.851 738.566 593.755 737.113 608.675 733.441 615.835 715.395 637.021 728.858 637.563 725.752 638.323 722.448 639.609 718.823L605.508 695.759C600.885 706.785 593.434 720.68 581.554 735.245ZM752.22 705.202 708.8 716.248C711.873 723.258 715.699 732.514 718.615 741.311 730.505 747.072 750.75 750.603 765.898 730.642 759.946 723.814 756.153 716.74 752.227 705.198 752.227 705.198 752.223 705.202 752.22 705.202ZM442.274 723.338C444.563 731.757 446.779 740.554 448.493 748.364 454.157 750.118 475.306 755.243 490.848 740.638 488.994 735.801 487.588 729.735 486.296 723.238L442.274 723.338ZM318.937 723.241C318.814 732.728 318.331 741.675 317.003 747.872 317.003 747.872 317.003 747.875 317.003 747.875L317.003 747.872C317.003 747.872 343.819 758.095 361.939 739.634 361.718 734.753 361.972 729.169 362.494 723.342L318.937 723.241ZM233.27 313.776C241.535 323.001 247.172 318.064 247.172 318.064L261.592 281.65C267.29 284.385 273.884 285.369 280.549 283.977 293.289 281.315 302.414 270.838 304.014 258.627L308.865 221.152C309.638 215.183 308.885 209.376 306.947 204.09 305.604 203.98 304.262 203.849 302.91 203.658 290.313 201.871 270.399 195.256 257.134 187.252 249.187 200.408 259.979 226.839 242.773 232.466 243.285 226.344 242.562 219.093 236.641 217.64 229.916 215.99 225.778 220.928 223.917 228.386 222.886 232.506 224.483 236.798 227.977 240.299L206.781 292.165 233.27 313.776ZM1200.54 404.853 1208.29 402.804C1210.09 402.325 1212.84 401.184 1212.84 397.16 1212.84 394.8 1209.51 394.72 1207.24 394.72L1199.3 394.72C1196.62 394.72 1194.45 396.889 1194.45 399.564L1194.45 400.173C1194.45 403.35 1197.46 405.666 1200.54 404.853ZM1209.08 406.667 1199.31 405.901C1196.27 405.663 1193.67 408.063 1193.67 411.109 1193.67 413.874 1195.8 416.063 1198.42 416.301 1197.14 417.185 1196.3 418.53 1196.3 420.08 1196.3 421.992 1197.56 423.578 1199.33 424.375 1198.51 425.209 1198.01 426.353 1198.05 427.615L1198.06 427.759C1198.14 430.551 1200.75 432.57 1203.47 431.954L1204.31 431.763C1206.32 431.304 1207.76 429.507 1207.76 427.438 1207.76 426.106 1207.16 424.927 1206.24 424.114L1206.28 424.104C1208.28 423.662 1209.68 422.092 1209.68 420.301L1209.68 419.525C1209.68 417.55 1207.99 415.886 1205.74 415.632L1204.64 415.508 1209.38 414.775C1211.37 414.467 1212.84 412.753 1212.84 410.738 1212.84 408.605 1211.2 406.831 1209.08 406.667ZM1429.1 216.335C1426.82 218.812 1423.84 220.938 1419.99 222.494 1410.12 220.975 1408.8 206.738 1408.8 206.738 1397.08 206.708 1379.31 206.011 1367.15 198.493 1359.52 202.282 1352.03 201.198 1352.03 201.198L1350.22 241.073C1349.65 254.071 1357.23 266.64 1370 271.738 1371.43 272.311 1372.88 272.729 1374.33 273.081L1375.52 291.455C1376.67 304.975 1379.77 315.597 1395.76 315.597 1411.75 315.597 1424.4 303.948 1423.24 290.424L1419.2 265.174 1417.32 241.769C1418.14 242.144 1419.07 242.325 1420.06 242.177 1427.24 241.113 1432.53 236.433 1433.44 230.183 1434.25 224.493 1432.42 219.257 1429.1 216.335ZM986.306 183.614C987.314 193.743 992.613 202.624 1000.27 208.311L1002.92 244.363C1005.41 260.689 1021.52 271.802 1038.89 269.181 1056.26 266.563 1066.86 251.061 1064.37 234.736L1055.41 178.358 1055.63 177.478C1056.57 179.339 1058.52 180.39 1060.49 179.717 1066.36 177.699 1070.24 172.443 1070.25 166.274 1070.27 158.341 1066.01 151.9 1060.72 151.887 1058.06 151.88 1056.64 157.775 1055.88 163.613 1055.31 163.335 1054.67 163.184 1053.98 163.228L1053.98 163.231C1053.98 163.231 1049.6 142.557 1052.98 120.896 1048.83 125.73 1032.45 128.562 1020.27 126.593 1005.4 124.19 996.509 119.805 987.003 121.746 982.547 140.797 983.823 158.709 983.823 158.709L986.306 183.614ZM588.741 179.296C593.377 176.842 596.316 172.172 596.326 166.8 596.34 161.085 594.114 156.188 590.9 153.865 590.947 147.15 590.529 134.979 587.556 122.269 578.049 120.327 569.162 124.712 554.289 127.116 542.111 129.084 525.725 126.252 521.578 121.418 524.959 143.083 520.58 163.753 520.58 163.753L520.58 163.757C519.891 163.713 519.252 163.864 518.682 164.142 517.926 158.304 516.503 152.409 513.835 152.416 508.553 152.429 504.288 158.869 504.305 166.803 504.322 172.976 508.192 178.231 514.07 180.25 514.602 180.434 515.131 180.467 515.643 180.414L507.954 230.679C505.296 246.981 515.743 262.583 533.086 265.375 550.43 268.167 566.645 257.214 569.302 240.915L572.355 210.146C581.039 204.572 587.161 195.099 588.252 184.146L588.741 179.296ZM1308.89 398.891C1308.67 398.7 1308.49 398.493 1308.24 398.315 1308.24 398.315 1295.92 389.89 1295.12 389.29 1293.72 388.249 1292.14 387.466 1290.44 386.987L1273.6 382.247 1274.84 391.912C1274.48 391.878 1274.18 391.848 1273.87 391.818 1273.88 391.818 1273.9 391.821 1273.91 391.821 1273.66 391.798 1273.45 391.778 1273.24 391.758 1273.05 391.741 1272.87 391.724 1272.72 391.707 1272.06 391.644 1271.67 391.61 1271.67 391.61 1271.67 391.61 1271.66 391.614 1271.66 391.614 1271.65 391.61 1271.64 391.607 1271.64 391.607L1254.41 391.416C1253.66 391.319 1252.92 391.396 1252.22 391.594 1252.02 391.61 1251.82 391.59 1251.62 391.62L1236.29 394.261C1233.97 395.048 1232.2 395.329 1232.33 397.642 1232.42 399.139 1234.06 402.369 1239.01 402.68 1243.96 402.992 1254.79 402.483 1254.79 402.483 1254.93 402.456 1255.06 402.416 1255.19 402.386L1260.16 403.032C1260.1 403.223 1260.04 403.41 1259.99 403.601 1248.92 405.198 1240.72 406.898 1234.6 407.956 1226.17 409.412 1228.86 418.805 1235.79 418.33 1236.02 418.313 1236.26 418.296 1236.52 418.279 1234.24 420.894 1236.15 425.573 1240.63 425.824 1241.67 425.881 1243.02 425.962 1244.56 426.059 1242.22 428.332 1243.59 432.047 1248.02 432.218 1255.59 432.506 1271.97 432.342 1271.97 432.342L1272.03 432.308C1293.94 434.069 1302.33 431.341 1306.4 430.159 1316.47 427.227 1319.7 407.782 1308.89 398.891ZM961.227 727.419C969.957 726.927 980.043 730.559 982.397 735.714 989.172 731.345 989.791 736.099 997.905 736.099 1002.63 736.099 1003.74 734.013 1004.71 732.514 1004.89 729.052 1005.1 725.096 1005.35 720.854L961.743 720.854C961.616 722.997 961.455 725.179 961.227 727.419Z" fill="#F5C0A2" fill-rule="evenodd" transform="matrix(1.00185 0 0 1 -228.155 -8)"/><path d="M510.24 116.307C507.438 122.195 505.822 128.756 505.822 135.712 505.822 142.196 507.211 148.348 509.664 153.925 510.93 152.991 512.332 152.419 513.839 152.412 516.507 152.406 517.926 158.3 518.686 164.138 519.252 163.861 519.894 163.71 520.584 163.753L520.584 163.757C520.584 163.757 524.962 143.083 521.581 121.422 525.729 126.255 542.115 129.087 554.293 127.119 569.165 124.716 578.053 120.33 587.559 122.272 590.532 134.982 590.95 147.15 590.9 153.868 591.295 154.153 591.677 154.481 592.038 154.843 594.76 149.025 596.323 142.561 596.323 135.712 596.323 110.72 576.064 90.4579 551.072 90.4579 549.7 90.4579 548.351 90.5415 547.012 90.6621 547.012 90.5918 547.022 90.5248 547.022 90.4579 547.022 75.2739 534.713 62.9653 519.529 62.9653 504.345 62.9653 492.037 75.2739 492.037 90.4579 492.037 102.378 499.636 112.494 510.24 116.307Z" fill="#293237" transform="matrix(1.00185 0 0 1 -228.155 -8)"/><path d="M1370 271.738C1366.74 270.44 1363.83 268.645 1361.3 266.49L1354.42 296.279C1354.59 296.202 1354.74 296.108 1354.92 296.031 1354.93 296.027 1354.93 296.024 1354.94 296.017 1356.43 295.368 1358 294.809 1359.73 294.441 1365.37 293.246 1370.56 292.262 1375.52 291.462 1375.52 291.458 1375.52 291.455 1375.52 291.448L1374.33 273.074C1372.88 272.726 1371.43 272.308 1370 271.738Z" fill="#293237" transform="matrix(1.00185 0 0 1 -228.155 -8)"/><path d="M1367.15 198.49C1368.51 199.33 1369.95 200.056 1371.44 200.733 1371.85 200.92 1372.26 201.101 1372.68 201.275 1373.91 201.794 1375.17 202.266 1376.46 202.691 1376.77 202.795 1377.08 202.915 1377.39 203.012 1378.87 203.471 1380.37 203.859 1381.89 204.211 1382.57 204.368 1383.25 204.505 1383.93 204.642 1384.8 204.82 1385.68 204.98 1386.56 205.128 1389.91 205.69 1393.27 206.068 1396.51 206.303 1400.95 206.621 1405.18 206.724 1408.81 206.735 1408.81 206.735 1410.12 220.975 1420 222.494 1423.85 220.938 1426.82 218.812 1429.11 216.335 1432.43 219.254 1434.26 224.493 1433.44 230.177 1432.54 236.426 1427.24 241.109 1420.06 242.171 1419.07 242.318 1418.14 242.137 1417.32 241.762L1419.2 265.167 1423.24 290.417C1423.24 290.421 1423.24 290.427 1423.24 290.431 1431.51 291.445 1440.54 293.028 1451.12 295.254 1455.05 296.081 1458.38 297.594 1461.21 299.613 1453.55 207.745 1429.53 183.456 1427.19 181.297 1424.46 177.629 1421.08 174.221 1417.07 171.349 1400.82 159.673 1385.19 159.8 1367.47 171.506L1367.46 171.483C1367.46 171.483 1346.71 179.533 1352.04 201.188 1352.03 201.195 1359.52 202.279 1367.15 198.49Z" fill="#293237" transform="matrix(1.00185 0 0 1 -228.155 -8)"/><path d="M414.329 771.247C400.32 765.744 382.381 761.486 362.096 739.493 343.973 758.165 317.003 747.872 317.003 747.872 317.003 747.872 310.147 765.59 313.277 789.534L427.137 789.524C427.133 789.52 429.915 777.369 414.329 771.247Z" fill="#293237" transform="matrix(1.00185 0 0 1 -228.155 -8)"/><path d="M981.566 118.191C979.437 123.44 978.239 129.171 978.239 135.183 978.239 143.016 980.231 150.384 983.736 156.811 983.548 151.733 983.414 137.114 987.006 121.743 996.513 119.802 1005.4 124.187 1020.27 126.59 1032.45 128.558 1048.84 125.726 1052.98 120.893 1049.6 142.557 1053.98 163.228 1053.98 163.228L1053.98 163.225C1054.67 163.181 1055.31 163.332 1055.88 163.609 1056.64 157.772 1058.06 151.877 1060.73 151.883 1066.01 151.897 1070.27 158.337 1070.26 166.271 1070.24 172.443 1066.37 177.699 1060.49 179.714 1058.53 180.387 1056.57 179.336 1055.63 177.475L1055.42 178.355 1056.29 183.855C1064.24 181.428 1083.8 173.344 1079.64 153.417 1079.64 153.417 1096.87 130.001 1076.58 114.539 1075.16 94.7727 1063.72 86.0627 1043.8 86.7355 1043.8 86.7355 998.632 86.6117 988.606 86.8259 974.326 87.1138 974.761 99.4558 980.341 115.734 980.656 116.675 981.088 117.465 981.566 118.191Z" fill="#293237" transform="matrix(1.00185 0 0 1 -228.155 -8)"/><path d="M1264.65 340.204 1271.21 391.607 1271.64 391.61C1271.65 391.61 1271.65 391.614 1271.66 391.617 1271.67 391.617 1271.67 391.614 1271.68 391.614 1271.68 391.614 1272.91 391.727 1274.84 391.915L1268.24 340.204C1268.05 338.761 1266.73 337.589 1265.29 337.589L1261.7 337.589C1263.14 337.589 1264.46 338.761 1264.65 340.204Z" fill="#293237" transform="matrix(1.00185 0 0 1 -228.155 -8)"/><path d="M150.032 327.838C157.905 306.21 178.536 291.351 202.108 291.351 203.765 291.351 205.399 291.448 207.016 291.592L227.984 240.303C224.489 236.801 222.896 232.51 223.924 228.389 225.785 220.934 229.922 215.994 236.647 217.644 242.569 219.097 243.292 226.347 242.78 232.47 259.986 226.839 249.19 200.408 257.14 187.256 270.406 195.26 290.32 201.874 302.917 203.662 304.269 203.852 305.611 203.983 306.954 204.093 308.888 209.379 309.645 215.187 308.872 221.155L304.021 258.63C302.421 270.841 293.296 281.319 280.556 283.98 273.891 285.369 267.296 284.388 261.599 281.654L248.055 315.851C248.896 317.096 249.702 318.362 250.442 319.674L281.707 356.415C284.854 356.794 287.897 357.148 290.846 357.486L325.846 334.175C325.9 334.138 325.96 334.121 326.014 334.088 327.195 333.1 328.528 332.213 329.971 331.45L334.496 328.096C333.87 325.237 333.027 322.228 331.865 319.051 326.754 304.985 333.398 295.773 335.742 278.079 337.027 268.435 332.99 256.042 327.805 243.988 319.255 224.114 334.848 206.704 326.486 187.259 316.946 165.072 292.325 155.572 269.476 156.282 262.259 156.506 255.892 157.597 250.151 159.449 231.67 165.41 219.729 179.255 207.126 197.378 203.447 202.667 199.601 208.75 195.698 215.783 190.453 225.209 190.858 239.101 181.85 250.295 176.333 257.164 167.054 257.837 157.507 269.348 146.367 282.808 145.791 302.05 143.137 318.06 142.564 321.498 145.128 324.762 150.032 327.838Z" fill="#293237" transform="matrix(1.00185 0 0 1 -228.155 -8)"/><path d="M652.51 758.553C643.264 750.128 638.758 741.451 639.09 731.499 639.11 730.86 638.648 730.311 638.43 729.718 616.116 714.484 609.013 733.354 593.762 737.11 586.17 738.977 582.796 735.513 579.08 734.04 573.872 743.168 562.725 764.421 562.591 776.944 562.564 779.25 562.541 781.617 562.531 784.108 562.521 786.668 564.593 788.764 567.15 788.764L663.265 789.584C666.09 789.584 668.3 787.06 667.844 784.272 666.124 773.777 660.202 765.57 652.51 758.553Z" fill="#293237" transform="matrix(1.00185 0 0 1 -228.155 -8)"/><path d="M1122.99 509.049 1123.17 498.484C1121.32 498.769 1119.35 498.574 1117.48 497.624 1110.25 493.965 1101.41 487.973 1091.43 482.041 1073.98 471.671 1054.43 465.324 1034.22 463.48L999.981 460.35C999.981 460.35 999.961 460.383 999.927 460.43 999.823 460.424 999.72 460.437 999.616 460.434 998.093 460.36 996.583 460.363 995.09 460.46 995.026 460.464 994.96 460.46 994.896 460.464 993.266 460.578 991.662 460.788 990.086 461.096 990.029 461.106 989.972 461.127 989.915 461.137 988.476 461.424 987.07 461.796 985.687 462.235 985.306 462.355 984.941 462.506 984.562 462.636 983.518 463.004 982.487 463.4 981.483 463.851 981.027 464.056 980.586 464.276 980.14 464.497 979.24 464.943 978.356 465.418 977.493 465.927 977.037 466.195 976.589 466.469 976.144 466.757 975.313 467.293 974.513 467.865 973.723 468.461 973.312 468.772 972.893 469.077 972.495 469.401 971.678 470.071 970.901 470.787 970.138 471.517 969.824 471.818 969.492 472.099 969.188 472.414 968.147 473.482 967.152 474.597 966.232 475.778 958.646 474.958 949.806 471.812 939.713 464.829L939.713 464.829 823.226 464.571C799.556 464.772 781.533 486.574 784.871 510.97 784.898 511.161 784.945 511.345 784.975 511.539 785.353 515.459 786.337 519.482 787.984 523.516L866.532 722.722 927.904 721.507C913.325 662.217 899.912 602.291 885.11 553.067L956.591 560.84 953.254 720.851 1014.53 720.851C1022.96 668.792 1030.48 611.032 1034.5 562.685L1053.76 562.728C1088.1 565.252 1119.97 544.695 1122.99 509.049Z" fill="#293237" transform="matrix(1.00185 0 0 1 -228.155 -8)"/><path d="M544.341 771.247C530.332 765.744 512.396 761.486 492.107 739.493 473.984 758.165 447.014 747.872 447.014 747.872 447.014 747.872 440.158 765.59 443.288 789.534L557.145 789.524C557.145 789.52 559.926 777.369 544.341 771.247Z" fill="#293237" transform="matrix(1.00185 0 0 1 -228.155 -8)"/><path d="M939.292 448.764 939.713 464.809C939.713 464.708 939.61 458.783 939.292 448.764L939.292 448.764Z" fill="#293237" transform="matrix(1.00185 0 0 1 -228.155 -8)"/><path d="M719.579 594.053C748.233 547.29 773.928 505.256 774.246 504.412 775.167 501.962 775.742 499.465 776.017 496.964 776.285 494.976 776.348 492.961 776.157 490.929 774.203 469.816 754.406 454.097 731.144 455.185L670.623 456.531C660.112 456.531 655.563 456.075 650.615 456.464L540.253 465.15 497.413 468.595 491.254 469.006 454.82 471.875 455.362 491.776C455.955 513.614 465.81 534.442 483.072 547.835 495.264 557.295 509.926 562.477 525.023 562.095 525.039 562.109 525.056 562.122 525.076 562.136L633.543 562.136C635.575 570.554 638.052 579.087 640.867 587.623 620.552 630.587 604.805 672.397 598.917 691.297L642.042 720.459C642.042 720.459 656.025 697.69 674.891 666.937 685.833 688.287 696.281 706.24 703.167 717.681L753.619 704.847 719.579 594.053Z" fill="#293237" transform="matrix(1.00185 0 0 1 -228.155 -8)"/><path d="M1453.43 440.419C1449.82 449.983 1415.61 451.185 1390.75 448.179L1390.75 435.716 1401.58 434.899C1405.37 434.374 1408.76 432.064 1410.63 428.733L1441.32 374.284C1441.73 373.561 1441.47 372.644 1440.75 372.235 1440.03 371.82 1439.1 372.081 1438.7 372.808L1408.01 427.257C1406.59 429.774 1404.03 431.515 1401.26 431.91L1391 432.683C1391.14 432.616 1391.27 432.549 1391.4 432.489L1359.45 432.489 1359.45 432.067 1055.62 432.067C1054.94 432.067 1054.16 431.967 1053.32 431.813L1045.93 431.813C1042.78 428.841 1041.16 425.265 1040.43 422.966L1040.78 422.373 1048.35 423.772C1049.18 423.923 1049.95 423.384 1050.11 422.567 1050.26 421.747 1049.72 420.964 1048.9 420.813L1040.28 419.22C1039.66 419.109 1039.02 419.394 1038.7 419.946L1035.61 425.286C1032.97 427.853 1029.64 430.461 1027.26 430.109 1025.94 429.915 1025.21 429.071 1024.79 428.01L1029.13 415.23C1029.96 412.863 1032.26 411.364 1034.8 411.42L1046.98 412.036C1047.88 412.083 1048.52 411.434 1048.56 410.607 1048.6 409.777 1047.96 409.071 1047.13 409.027L1034.95 408.411C1031.07 408.23 1027.56 410.61 1026.28 414.242L1022.96 424.027C1021.31 426.223 1018.66 429.138 1015.58 430.106 1012.77 430.986 1011.56 429.654 1011.01 428.258L1019.89 411.698 1035.73 404.742C1036.5 404.408 1036.84 403.52 1036.51 402.757 1036.17 401.991 1035.27 401.649 1034.52 401.984L1018.2 409.151C1017.89 409.288 1017.64 409.519 1017.47 409.817L1008.13 427.25C1006.25 428.265 1003.66 429.56 1001.79 430.123 999.422 430.832 997.641 429.359 996.834 428.496L1005.77 414.922 1021.5 404.625C1022.19 404.167 1022.39 403.233 1021.94 402.54 1021.47 401.843 1020.53 401.653 1019.85 402.101L1003.86 412.572C1003.69 412.686 1003.54 412.833 1003.43 413.007L992.158 430.123C990.735 430.283 988.988 430.032 986.896 428.787 981.945 425.841 991.709 415.775 995.515 412.13 996.386 411.297 996.948 410.798 996.948 410.798L946.432 432.064 695.715 432.064C696.636 431.418 697.332 430.447 697.476 429.309L712.904 308.467C713.155 306.512 711.773 304.928 709.818 304.928L704.8 304.928 632.987 304.928 632.997 304.825 631.096 304.825 631.086 304.928 611.976 304.928 613.197 286.009C613.251 285.178 612.622 284.462 611.792 284.405 610.965 284.432 610.245 284.981 610.191 285.811L608.956 304.925 542.305 304.925 537.288 304.925C535.333 304.925 533.548 306.508 533.297 308.463L518.103 427.491 435.653 427.491 435.653 429.306C435.653 430.447 436.225 431.415 437.062 432.061L208.864 432.061 208.864 441.055C182.864 441.691 152.978 440.239 135.019 438.163 132.234 437.842 129.857 437.022 128.06 435.776 122.848 443.944 111.507 465.679 111.507 500.429 111.507 545.516 150.846 574.642 190.493 567.692L216.854 562.34C220.108 562.346 223.465 562.149 227 561.55L248.785 557.881 211.498 789.527 226.304 789.527 264.836 555.18 320.219 545.85C313.073 601.592 315.379 659.211 316.885 723.234L365.517 723.345 388.578 578.705C400.535 626.781 417.791 675.189 437.862 723.345L487.417 723.234 439.904 484.974C439.067 480.769 437.326 476.759 434.943 473.094 428.462 460.862 416.016 452.818 402.058 453.424 402.058 453.424 398.211 453.287 379.713 453.96 379.252 453.863 370.749 454.325 370.284 454.254 368.657 454.003 320.266 455.449 281.041 456.671L282.34 448.768 1319.93 448.768 1321.67 459.376C1320.74 459.376 1319.82 459.352 1318.87 459.416L1192.19 468.149C1168.52 469.686 1148.69 486.621 1143.48 509.758L1091.96 738.047 1093.45 738.047C1092.52 740.183 1090.72 743.192 1087.17 746.908 1076.8 757.757 1061.22 766.139 1049.96 771.575 1036.06 778.29 1038.47 789.537 1038.47 789.537L1100.45 789.537 1140.62 789.537 1202.6 789.537C1207.88 768.442 1200.93 760.927 1203.19 738.047L1239.12 738.047 1292.64 562.266 1338.61 562.497 1375.94 789.537 1390.75 789.537 1354.22 562.574 1407.2 562.839 1407.21 562.808C1407.88 562.818 1408.56 562.839 1409.24 562.839 1450.8 562.839 1484.5 543.095 1484.5 504.499 1484.5 481.238 1472.25 456.454 1453.43 440.419ZM265 457.17C246.194 457.762 232.188 458.214 231.352 458.244 231.308 458.244 231.268 458.244 231.228 458.244 230.441 455.416 229.37 452.045 228.282 448.764L266.356 448.764 265 457.17ZM1149.15 746.904C1146.95 750.044 1144.17 752.829 1141.07 755.336 1140.67 750.449 1140.53 744.926 1141.21 738.044L1153.78 738.044 1153.78 738.044 1154.96 738.044C1153.9 739.878 1152.13 742.65 1149.15 746.904Z" fill="#293237" transform="matrix(1.00185 0 0 1 -228.155 -8)"/><path d="M995.177 272.18C995.354 272.251 995.535 272.281 995.719 272.281 996.322 272.281 996.894 271.916 997.122 271.32 997.423 270.547 997.042 269.673 996.265 269.368 996.017 269.275 971.715 259.601 976.214 241.909 976.418 241.106 975.929 240.286 975.123 240.078 974.309 239.881 973.499 240.366 973.292 241.17 968.14 261.445 994.906 272.077 995.177 272.18Z" fill="#293237" transform="matrix(1.00185 0 0 1 -228.155 -8)"/><path d="M1072.15 267.47C1071.38 267.775 1070.99 268.645 1071.29 269.422 1071.52 270.018 1072.09 270.383 1072.7 270.383 1072.88 270.383 1073.06 270.349 1073.24 270.282 1073.51 270.179 1100.28 259.55 1095.12 239.272 1094.92 238.468 1094.12 237.996 1093.29 238.18 1092.49 238.388 1092 239.208 1092.2 240.011 1096.7 257.706 1072.4 267.377 1072.15 267.47Z" fill="#293237" transform="matrix(1.00185 0 0 1 -228.155 -8)"/><path d="M1312.1 400.876C1312.14 400.876 1312.17 400.873 1312.21 400.869L1372.94 396.287C1376.72 395.761 1380.11 393.451 1381.99 390.117L1412.68 335.671C1413.08 334.948 1412.83 334.031 1412.1 333.623 1411.38 333.204 1410.46 333.465 1410.06 334.195L1379.37 388.641C1377.94 391.162 1375.39 392.902 1372.61 393.297L1311.99 397.87C1311.16 397.934 1310.53 398.653 1310.6 399.483 1310.66 400.277 1311.32 400.876 1312.1 400.876Z" fill="#293237" transform="matrix(1.00185 0 0 1 -228.155 -8)"/><path d="M783.907 299.321 784.181 299.435C783.127 302.679 779.689 312.785 776.519 316.584 775.987 317.22 776.074 318.174 776.713 318.706 776.994 318.941 777.336 319.055 777.677 319.055 778.109 319.055 778.537 318.867 778.835 318.512 778.936 318.392 779.036 318.241 779.14 318.111 779.197 318.144 779.237 318.198 779.301 318.224 790.769 323.269 795.938 326.01 799.707 328.016L801.953 329.201C802.174 329.314 802.411 329.371 802.646 329.371 803.188 329.371 803.714 329.073 803.981 328.558 804.363 327.818 804.075 326.911 803.339 326.529L801.123 325.358C797.34 323.353 792.155 320.598 780.784 315.59 781.276 314.726 781.754 313.792 782.223 312.815L808.159 325.649C808.37 325.756 808.601 325.806 808.825 325.806 809.377 325.806 809.913 325.498 810.174 324.966 810.542 324.22 810.238 323.319 809.491 322.948L783.458 310.063C784.101 308.55 784.697 307.034 785.219 305.631 790.12 308.011 806.211 315.861 814.988 320.554 815.212 320.675 815.456 320.735 815.697 320.735 816.233 320.735 816.752 320.447 817.023 319.938 817.415 319.205 817.14 318.295 816.404 317.903 807.409 313.093 790.792 304.992 786.24 302.779 786.816 301.109 787.204 299.89 787.338 299.459 787.402 299.368 787.499 299.315 787.545 299.211 787.867 298.444 787.505 297.561 786.739 297.239L785.065 296.543C778.206 293.691 774.065 291.977 766.785 285.6 766.159 285.058 765.208 285.111 764.659 285.744 764.11 286.37 764.174 287.321 764.8 287.87 772.448 294.565 777.008 296.456 783.907 299.321Z" fill="#293237" transform="matrix(1.00185 0 0 1 -228.155 -8)"/><path d="M1236.44 420.378C1236.58 420.378 1236.73 420.358 1236.87 420.315 1244.44 418.099 1265.5 412.736 1271.95 414.564 1272.75 414.771 1273.58 414.319 1273.81 413.519 1274.04 412.719 1273.57 411.886 1272.77 411.658 1264.14 409.238 1237.16 417.084 1236.02 417.422 1235.22 417.653 1234.76 418.49 1234.99 419.294 1235.19 419.953 1235.79 420.378 1236.44 420.378Z" fill="#293237" transform="matrix(1.00185 0 0 1 -228.155 -8)"/><path d="M1272.36 421.68C1272.36 421.68 1272.35 421.68 1272.35 421.68 1259.61 421.777 1244.78 425.028 1244.15 425.165 1243.34 425.346 1242.82 426.149 1243 426.959 1243.16 427.662 1243.78 428.144 1244.47 428.144 1244.57 428.144 1244.69 428.131 1244.8 428.107 1244.95 428.074 1259.96 424.79 1272.37 424.693 1273.2 424.686 1273.87 424.007 1273.86 423.173 1273.86 422.35 1273.19 421.68 1272.36 421.68Z" fill="#293237" transform="matrix(1.00185 0 0 1 -228.155 -8)"/><path d="M213.212 313.25C212.502 313.679 212.271 314.606 212.703 315.315L240.919 361.999C241.2 362.471 241.699 362.729 242.211 362.729 242.475 362.729 242.746 362.658 242.987 362.511 243.697 362.083 243.928 361.155 243.496 360.446L215.281 313.762C214.849 313.039 213.921 312.815 213.212 313.25Z" fill="#293237" transform="matrix(1.00185 0 0 1 -228.155 -8)"/><path d="M175.657 346.423C174.957 346.878 174.76 347.809 175.212 348.509L200.418 387.372C200.706 387.818 201.188 388.059 201.683 388.059 201.964 388.059 202.249 387.982 202.5 387.818 203.2 387.362 203.397 386.432 202.945 385.732L177.739 346.868C177.287 346.169 176.35 345.971 175.657 346.423Z" fill="#293237" transform="matrix(1.00185 0 0 1 -228.155 -8)"/><path d="M330.64 375.047 273.64 417.603C272.974 418.099 272.836 419.046 273.335 419.712 273.63 420.107 274.085 420.318 274.544 420.318 274.855 420.318 275.173 420.221 275.444 420.017L332.444 377.461C333.11 376.965 333.248 376.018 332.749 375.352 332.253 374.682 331.306 374.545 330.64 375.047Z" fill="#293237" transform="matrix(1.00185 0 0 1 -228.155 -8)"/><path d="M369.199 337.265 408.481 337.265C409.221 337.265 409.82 336.662 409.82 335.926 409.82 335.189 409.221 334.587 408.481 334.587L369.199 334.587C368.459 334.587 367.86 335.189 367.86 335.926 367.86 336.662 368.459 337.265 369.199 337.265Z" fill="#293237" transform="matrix(1.00185 0 0 1 -228.155 -8)"/><path d="M366.498 347.029 399.259 347.029C399.999 347.029 400.598 346.427 400.598 345.69 400.598 344.954 399.999 344.351 399.259 344.351L366.498 344.351C365.758 344.351 365.159 344.954 365.159 345.69 365.159 346.427 365.758 347.029 366.498 347.029Z" fill="#293237" transform="matrix(1.00185 0 0 1 -228.155 -8)"/><path d="M364.134 357.158C364.148 357.158 364.165 357.158 364.181 357.155L383.432 356.482C384.172 356.455 384.751 355.84 384.725 355.1 384.698 354.373 384.105 353.804 383.386 353.804 383.372 353.804 383.355 353.804 383.339 353.808L364.088 354.48C363.348 354.507 362.769 355.123 362.796 355.863 362.822 356.589 363.415 357.158 364.134 357.158Z" fill="#293237" transform="matrix(1.00185 0 0 1 -228.155 -8)"/><path d="M451.586 360.365C451.593 360.365 451.6 360.365 451.61 360.365 452.433 360.365 453.103 359.706 453.116 358.882L454.13 293.698C454.144 292.867 453.481 292.181 452.647 292.168 451.814 292.218 451.131 292.821 451.118 293.651L450.103 358.836C450.09 359.666 450.753 360.352 451.586 360.365Z" fill="#293237" transform="matrix(1.00185 0 0 1 -228.155 -8)"/><path d="M253.03 345.329 252.591 379.499 254.044 381.99 255.587 380.962 256.042 345.369C256.052 344.535 255.386 343.856 254.556 343.842 253.662 343.956 253.04 344.498 253.03 345.329Z" fill="#293237" transform="matrix(1.00185 0 0 1 -228.155 -8)"/><path d="M1124.66 377.179 1117.13 291.351C1117.06 290.521 1116.25 289.942 1115.5 289.982 1114.67 290.052 1114.06 290.785 1114.14 291.612L1121.72 378.157 1124.66 377.179Z" fill="#293237" transform="matrix(1.00185 0 0 1 -228.155 -8)"/><path d="M940.574 382.579C940.808 382.301 940.949 381.94 940.928 381.548L936.53 291.281C936.49 290.454 935.814 289.691 934.953 289.848 934.12 289.888 933.48 290.595 933.521 291.425L937.912 381.528 940.574 382.579Z" fill="#293237" transform="matrix(1.00185 0 0 1 -228.155 -8)"/><path d="M1013.14 777.962C1013.14 777.962 1013.14 777.962 1013.13 777.962L838.001 779.324C836.485 775.555 833.63 772.646 826.972 769.834 826.336 769.526 825.71 769.215 825.007 768.91 822.53 767.836 819.855 766.604 817.063 765.245 798.686 756.321 774.979 741.92 765.928 730.605 750.409 751.092 729.501 746.891 717.741 740.889 713.657 753.465 713.082 767.856 713.316 777.711 713.386 780.7 713.527 783.291 713.671 785.259 713.848 787.669 715.86 789.527 718.277 789.527L834.754 789.527C837.543 789.527 839.712 787.073 839.344 784.312 839.223 783.619 839.083 782.969 838.935 782.327L1013.15 780.971C1013.97 780.964 1014.63 780.285 1014.63 779.451 1014.62 778.628 1013.96 777.962 1013.14 777.962Z" fill="#293237" transform="matrix(1.00185 0 0 1 -228.155 -8)"/><path d="M233.517 457.759C233.608 458.586 233.012 459.329 232.185 459.419L185.033 464.574C184.976 464.581 184.923 464.584 184.869 464.584 184.109 464.584 183.456 464.012 183.373 463.242 183.282 462.415 183.878 461.672 184.705 461.582L231.857 456.427C232.697 456.346 233.43 456.932 233.517 457.759ZM378.857 467.346C392.193 475.303 400.622 491.943 398.459 506.039L384.862 592.236C384.731 593.059 385.294 593.832 386.114 593.96 386.194 593.973 386.271 593.98 386.351 593.98 387.081 593.98 387.721 593.451 387.838 592.708L401.435 506.504C403.772 491.257 394.73 473.311 380.396 464.759 379.683 464.333 378.756 464.564 378.331 465.281 377.909 465.994 378.144 466.918 378.857 467.346ZM424.73 779.364 312.54 779.364C311.707 779.364 311.034 780.041 311.034 780.871 311.034 781.701 311.71 782.377 312.54 782.377L424.733 782.377C425.567 782.377 426.24 781.701 426.24 780.871 426.24 780.041 425.563 779.364 424.73 779.364ZM555.514 778.43 443.322 778.43C442.488 778.43 441.815 779.107 441.815 779.937 441.815 780.767 442.491 781.443 443.322 781.443L555.514 781.443C556.348 781.443 557.021 780.767 557.021 779.937 557.021 779.107 556.348 778.43 555.514 778.43ZM713.212 501.145C712.516 500.69 711.582 500.897 711.13 501.594L696.991 523.519C696.542 524.219 696.743 525.15 697.442 525.602 697.693 525.766 697.978 525.843 698.256 525.843 698.751 525.843 699.233 525.598 699.525 525.153L713.664 503.227C714.113 502.528 713.912 501.594 713.212 501.145ZM638.32 536.414C637.513 536.273 636.72 536.826 636.583 537.642L632.526 561.349C632.385 562.169 632.937 562.949 633.757 563.09 633.841 563.106 633.928 563.113 634.012 563.113 634.732 563.113 635.371 562.594 635.495 561.861L639.552 538.155C639.692 537.331 639.14 536.554 638.32 536.414ZM1247.02 706.554 1163.02 706.554 1204.6 516.369C1207.05 505.319 1212.89 495.588 1221.49 488.221 1222.12 487.678 1222.2 486.728 1221.66 486.095 1221.12 485.466 1220.17 485.392 1219.53 485.931 1210.43 493.727 1204.25 504.024 1201.65 515.72L1159.94 706.554 1097.99 706.554C1097.16 706.554 1096.48 707.23 1096.48 708.06 1096.48 708.891 1097.16 709.567 1097.99 709.567L1159.28 709.567 1153.28 737.003C1153.1 737.813 1153.62 738.616 1154.43 738.793 1154.54 738.817 1154.65 738.83 1154.76 738.83 1155.45 738.83 1156.08 738.348 1156.23 737.645L1162.36 709.567 1247.02 709.567C1247.85 709.567 1248.52 708.891 1248.52 708.06 1248.52 707.23 1247.85 706.554 1247.02 706.554ZM1141.69 751.966C1133.72 761.861 1119.58 767.36 1108.22 771.779 1106.6 772.408 1105.05 773.011 1103.59 773.6 1088.36 779.736 1089.68 789.457 1089.74 789.869 1089.86 790.612 1090.5 791.134 1091.22 791.134 1091.29 791.134 1091.37 791.131 1091.44 791.121 1092.26 791.003 1092.83 790.237 1092.72 789.42 1092.67 789.102 1091.83 781.58 1104.71 776.388 1106.16 775.806 1107.7 775.207 1109.3 774.584 1121 770.035 1135.57 764.374 1144.04 753.854 1144.56 753.207 1144.46 752.257 1143.81 751.735 1143.16 751.222 1142.22 751.313 1141.69 751.966ZM963.135 483.441C957.652 490.484 954.66 498.953 954.476 507.927L953.193 569.252C953.177 570.086 953.836 570.772 954.666 570.792 954.68 570.792 954.69 570.792 954.7 570.792 955.517 570.792 956.186 570.139 956.206 569.319L957.488 507.991C957.659 499.669 960.434 491.819 965.512 485.292 966.021 484.636 965.904 483.688 965.248 483.176 964.598 482.667 963.648 482.778 963.135 483.441ZM859.713 523.824C859.144 523.212 858.193 523.188 857.584 523.75 856.975 524.316 856.941 525.27 857.51 525.879L885.565 555.983C885.863 556.304 886.265 556.465 886.667 556.465 887.035 556.465 887.403 556.331 887.694 556.06 888.303 555.494 888.337 554.54 887.768 553.931L859.713 523.824ZM1036.95 541.291C1036.13 541.301 1035.4 541.857 1035.34 542.687L1033.26 571.78C1033.2 572.61 1033.83 573.329 1034.66 573.39 1034.7 573.39 1034.73 573.393 1034.77 573.393 1035.55 573.393 1036.21 572.787 1036.27 571.994L1038.35 542.901C1038.41 542.071 1037.78 541.351 1036.95 541.291Z" fill="#E0E0E0" transform="matrix(1.00185 0 0 1 -228.155 -8)"/></g></svg>